<svg xmlns="http://www.w3.org/2000/svg" viewBox="0 0 168 32" fill="none">
  <path d="M9 7h11a2 2 0 0 1 2 2v14a2 2 0 0 1-2 2H9a2 2 0 0 1-2-2V9a2 2 0 0 1 2-2z" fill="#FFFFFF" stroke="#E8E5DD" stroke-width="0.75"/>
  <path d="M18 7v4a1 1 0 0 0 1 1h4" stroke="#D5D1C5" stroke-width="0.8" fill="none"/>
  <path d="M11 13h8M11 16h6" stroke="#1E2548" stroke-width="1" stroke-linecap="round" opacity="0.22"/>
  <path d="M8 23.5C11 20 14 22 17 21.5C20 21 22.5 23 24 22" stroke="#F59E0B" stroke-width="2.2" stroke-linecap="round"/>
  <text x="40" y="22" font-family="ui-sans-serif, system-ui, -apple-system, Segoe UI, sans-serif" font-size="18" font-weight="600" fill="#1E2548" letter-spacing="-0.02em">DocFlow</text>
</svg>
