<svg xmlns="http://www.w3.org/2000/svg" viewBox="0 0 32 32" fill="none">
  <rect width="32" height="32" rx="7" fill="#1E2548"/>
  <path d="M9 7h11a2 2 0 0 1 2 2v14a2 2 0 0 1-2 2H9a2 2 0 0 1-2-2V9a2 2 0 0 1 2-2z" fill="#FBFAF7"/>
  <path d="M18 7v4a1 1 0 0 0 1 1h4" stroke="#D5D1C5" stroke-width="0.8" fill="none"/>
  <path d="M11 13h8M11 16h6" stroke="#1E2548" stroke-width="1" stroke-linecap="round" opacity="0.22"/>
  <path d="M8 23.5C11 20 14 22 17 21.5C20 21 22.5 23 24 22" stroke="#F59E0B" stroke-width="2.2" stroke-linecap="round"/>
</svg>
